<svg width="24" height="24" viewBox="0 0 24 24" fill="none" xmlns="http://www.w3.org/2000/svg"><path d="M3 1.325C2.62721 1.325 2.325 1.62721 2.325 2C2.325 2.37279 2.62721 2.675 3 2.675V1.325ZM17.4063 18.3684H18.0813V17.0184H17.4063V18.3684ZM5.3223 2.40194L5.98419 2.26956L5.3223 2.40194ZM3 2.675H4.83201V1.325H3V2.675ZM4.6604 2.53432L7.39713 16.218L8.72092 15.9532L5.98419 2.26956L4.6604 2.53432ZM10.0202 18.3684H17.4063V17.0184H10.0202V18.3684ZM7.39713 16.218C7.6472 17.4683 8.74506 18.3684 10.0202 18.3684V17.0184C9.38858 17.0184 8.84478 16.5725 8.72092 15.9532L7.39713 16.218ZM4.83201 2.675C4.74859 2.675 4.67676 2.61612 4.6604 2.53432L5.98419 2.26956C5.87434 1.72034 5.39211 1.325 4.83201 1.325V2.675Z" fill="#000000"/><path d="M6.58704 5.5871H20.33C20.644 5.5871 20.8803 5.87312 20.821 6.18147L19.6959 12.0354C19.5149 12.9772 18.6909 13.658 17.7319 13.658H8.13819" stroke="#000000" stroke-width="1.35" stroke-linecap="square"/><circle cx="18.0275" cy="19.4836" r="1.7911" stroke="#000000" stroke-width="1.35"/><circle cx="8.49295" cy="19.5461" r="1.7911" stroke="#000000" stroke-width="1.35"/></svg>         